<svg width="26" height="26" viewBox="0 0 26 26" fill="none" xmlns="http://www.w3.org/2000/svg">
<mask id="mask0_792_232" style="mask-type:alpha" maskUnits="userSpaceOnUse" x="0" y="0" width="26" height="26">
<rect width="26" height="26" fill="#D4D4D4"/>
</mask>
<g mask="url(#mask0_792_232)">
<path d="M5.41667 22.75C4.82083 22.75 4.31076 22.5378 3.88646 22.1135C3.46215 21.6892 3.25 21.1792 3.25 20.5833V5.41667C3.25 4.82083 3.46215 4.31076 3.88646 3.88646C4.31076 3.46215 4.82083 3.25 5.41667 3.25H20.5833C21.1792 3.25 21.6892 3.46215 22.1135 3.88646C22.5378 4.31076 22.75 4.82083 22.75 5.41667V12.675C22.4069 12.5125 22.0549 12.3726 21.6937 12.2552C21.3326 12.1378 20.9625 12.0521 20.5833 11.9979V5.41667H5.41667V20.5833H11.9708C12.025 20.9806 12.1108 21.3597 12.2281 21.7208C12.3455 22.0819 12.4854 22.425 12.6479 22.75H5.41667ZM5.41667 20.5833V5.41667V11.9979V11.9167V20.5833ZM7.58333 18.4167H11.9979C12.0521 18.0375 12.1378 17.6674 12.2552 17.3062C12.3726 16.9451 12.5035 16.5931 12.6479 16.25H7.58333V18.4167ZM7.58333 14.0833H14.1917C14.7694 13.5417 15.4149 13.0903 16.1281 12.7292C16.8413 12.3681 17.6042 12.1243 18.4167 11.9979V11.9167H7.58333V14.0833ZM7.58333 9.75H18.4167V7.58333H7.58333V9.75ZM19.5 24.9167C18.0014 24.9167 16.724 24.3885 15.6677 23.3323C14.6115 22.276 14.0833 20.9986 14.0833 19.5C14.0833 18.0014 14.6115 16.724 15.6677 15.6677C16.724 14.6115 18.0014 14.0833 19.5 14.0833C20.9986 14.0833 22.276 14.6115 23.3323 15.6677C24.3885 16.724 24.9167 18.0014 24.9167 19.5C24.9167 20.9986 24.3885 22.276 23.3323 23.3323C22.276 24.3885 20.9986 24.9167 19.5 24.9167ZM18.9583 22.75H20.0417V20.0417H22.75V18.9583H20.0417V16.25H18.9583V18.9583H16.25V20.0417H18.9583V22.75Z" fill="#D4D4D4"/>
</g>
</svg>
