<svg width="26" height="26" viewBox="0 0 26 26" fill="none" xmlns="http://www.w3.org/2000/svg">
<mask id="mask0_792_226" style="mask-type:alpha" maskUnits="userSpaceOnUse" x="0" y="0" width="26" height="26">
<rect width="26" height="26" fill="#D4D4D4"/>
</mask>
<g mask="url(#mask0_792_226)">
<path d="M9.5835 22.75C8.98766 22.75 8.47759 22.5378 8.05329 22.1135C7.62898 21.6892 7.41683 21.1792 7.41683 20.5833V6.5H6.3335V4.33333H11.7502V3.25H18.2502V4.33333H23.6668V6.5H22.5835V20.5833C22.5835 21.1792 22.3713 21.6892 21.947 22.1135C21.5227 22.5378 21.0127 22.75 20.4168 22.75H9.5835ZM20.4168 6.5H9.5835V20.5833H20.4168V6.5ZM11.7502 18.4167H13.9168V8.66667H11.7502V18.4167ZM16.0835 18.4167H18.2502V8.66667H16.0835V18.4167Z" fill="#D4D4D4"/>
</g>
</svg>
