<svg width="26" height="26" viewBox="0 0 26 26" fill="none" xmlns="http://www.w3.org/2000/svg">
<mask id="mask0_792_229" style="mask-type:alpha" maskUnits="userSpaceOnUse" x="0" y="0" width="26" height="26">
<rect width="26" height="26" fill="#D4D4D4"/>
</mask>
<g mask="url(#mask0_792_229)">
<path d="M12.9998 22.75L11.429 21.3417C9.60539 19.6986 8.09775 18.2813 6.90609 17.0896C5.71442 15.8979 4.7665 14.8281 4.06234 13.8802C3.35817 12.9323 2.86616 12.0611 2.5863 11.2667C2.30643 10.4722 2.1665 9.65974 2.1665 8.82918C2.1665 7.13196 2.73525 5.7146 3.87275 4.5771C5.01025 3.4396 6.42761 2.87085 8.12484 2.87085C9.06373 2.87085 9.95748 3.06946 10.8061 3.46668C11.6547 3.86391 12.3859 4.42363 12.9998 5.14585C13.6137 4.42363 14.345 3.86391 15.1936 3.46668C16.0422 3.06946 16.9359 2.87085 17.8748 2.87085C19.5721 2.87085 20.9894 3.4396 22.1269 4.5771C23.2644 5.7146 23.8332 7.13196 23.8332 8.82918C23.8332 9.65974 23.6932 10.4722 23.4134 11.2667C23.1335 12.0611 22.6415 12.9323 21.9373 13.8802C21.2332 14.8281 20.2853 15.8979 19.0936 17.0896C17.9019 18.2813 16.3943 19.6986 14.5707 21.3417L12.9998 22.75ZM12.9998 19.825C14.7332 18.2722 16.1596 16.9406 17.279 15.8302C18.3984 14.7198 19.2832 13.7538 19.9332 12.9323C20.5832 12.1108 21.0346 11.3795 21.2873 10.7386C21.5401 10.0976 21.6665 9.46113 21.6665 8.82918C21.6665 7.74585 21.3054 6.84307 20.5832 6.12085C19.8609 5.39863 18.9582 5.03752 17.8748 5.03752C17.0262 5.03752 16.2408 5.27675 15.5186 5.75522C14.7964 6.2337 14.2998 6.84307 14.029 7.58335H11.9707C11.6998 6.84307 11.2033 6.2337 10.4811 5.75522C9.75886 5.27675 8.97345 5.03752 8.12484 5.03752C7.0415 5.03752 6.13873 5.39863 5.4165 6.12085C4.69428 6.84307 4.33317 7.74585 4.33317 8.82918C4.33317 9.46113 4.45956 10.0976 4.71234 10.7386C4.96511 11.3795 5.4165 12.1108 6.0665 12.9323C6.7165 13.7538 7.60123 14.7198 8.72067 15.8302C9.84011 16.9406 11.2665 18.2722 12.9998 19.825Z" fill="#D4D4D4"/>
</g>
</svg>
